# Blender 4.3.2
# www.blender.org
mtllib brick.mtl
o Object_2
v -3.427564 0.006289 0.163800
v -3.427564 0.114289 0.163800
v -3.427564 0.114289 -0.163800
v -3.427564 0.006289 -0.163800
v -3.427564 0.006289 -0.163800
v -3.427564 0.114289 -0.163800
v -3.099964 0.114289 -0.163800
v -3.099964 0.006289 -0.163800
v -3.099964 0.006289 -0.163800
v -3.099964 0.114289 -0.163800
v -3.099964 0.114289 0.163800
v -3.099964 0.006289 0.163800
v -3.099964 0.006289 0.163800
v -3.099964 0.114289 0.163800
v -3.427564 0.114289 0.163800
v -3.427564 0.006289 0.163800
v -3.099964 0.114289 -0.163800
v -3.427564 0.114289 -0.163800
v -3.427564 0.114289 0.163800
v -3.099964 0.114289 0.163800
v -2.427564 0.006289 0.163800
v -2.427564 0.114289 0.163800
v -2.427564 0.114289 -0.163800
v -2.427564 0.006289 -0.163800
v -2.427564 0.006289 -0.163800
v -2.427564 0.114289 -0.163800
v -2.099964 0.114289 -0.163800
v -2.099964 0.006289 -0.163800
v -2.099964 0.006289 -0.163800
v -2.099964 0.114289 -0.163800
v -2.099964 0.114289 0.163800
v -2.099964 0.006289 0.163800
v -2.099964 0.006289 0.163800
v -2.099964 0.114289 0.163800
v -2.427564 0.114289 0.163800
v -2.427564 0.006289 0.163800
v -2.099964 0.114289 -0.163800
v -2.427564 0.114289 -0.163800
v -2.427564 0.114289 0.163800
v -2.099964 0.114289 0.163800
v -0.427564 0.006289 0.163800
v -0.427564 0.114289 0.163800
v -0.427564 0.114289 -0.163800
v -0.427564 0.006289 -0.163800
v -0.427564 0.006289 -0.163800
v -0.427564 0.114289 -0.163800
v -0.099964 0.114289 -0.163800
v -0.099964 0.006289 -0.163800
v -0.099964 0.006289 -0.163800
v -0.099964 0.114289 -0.163800
v -0.099964 0.114289 0.163800
v -0.099964 0.006289 0.163800
v -0.099964 0.006289 0.163800
v -0.099964 0.114289 0.163800
v -0.427564 0.114289 0.163800
v -0.427564 0.006289 0.163800
v -0.099964 0.114289 -0.163800
v -0.427564 0.114289 -0.163800
v -0.427564 0.114289 0.163800
v -0.099964 0.114289 0.163800
v -1.427564 0.006289 0.163800
v -1.427564 0.114289 0.163800
v -1.427564 0.114289 -0.163800
v -1.427564 0.006289 -0.163800
v -1.427564 0.006289 -0.163800
v -1.427564 0.114289 -0.163800
v -1.099964 0.114289 -0.163800
v -1.099964 0.006289 -0.163800
v -1.099964 0.006289 -0.163800
v -1.099964 0.114289 -0.163800
v -1.099964 0.114289 0.163800
v -1.099964 0.006289 0.163800
v -1.099964 0.006289 0.163800
v -1.099964 0.114289 0.163800
v -1.427564 0.114289 0.163800
v -1.427564 0.006289 0.163800
v -1.099964 0.114289 -0.163800
v -1.427564 0.114289 -0.163800
v -1.427564 0.114289 0.163800
v -1.099964 0.114289 0.163800
v 0.572436 0.006289 0.163800
v 0.572436 0.114289 0.163800
v 0.572436 0.114289 -0.163800
v 0.572436 0.006289 -0.163800
v 0.572436 0.006289 -0.163800
v 0.572436 0.114289 -0.163800
v 0.900036 0.114289 -0.163800
v 0.900036 0.006289 -0.163800
v 0.900036 0.006289 -0.163800
v 0.900036 0.114289 -0.163800
v 0.900036 0.114289 0.163800
v 0.900036 0.006289 0.163800
v 0.900036 0.006289 0.163800
v 0.900036 0.114289 0.163800
v 0.572436 0.114289 0.163800
v 0.572436 0.006289 0.163800
v 0.900036 0.114289 -0.163800
v 0.572436 0.114289 -0.163800
v 0.572436 0.114289 0.163800
v 0.900036 0.114289 0.163800
v 1.572436 0.006289 0.163800
v 1.572436 0.114289 0.163800
v 1.572436 0.114289 -0.163800
v 1.572436 0.006289 -0.163800
v 1.572436 0.006289 -0.163800
v 1.572436 0.114289 -0.163800
v 1.900036 0.114289 -0.163800
v 1.900036 0.006289 -0.163800
v 1.900036 0.006289 -0.163800
v 1.900036 0.114289 -0.163800
v 1.900036 0.114289 0.163800
v 1.900036 0.006289 0.163800
v 1.900036 0.006289 0.163800
v 1.900036 0.114289 0.163800
v 1.572436 0.114289 0.163800
v 1.572436 0.006289 0.163800
v 1.900036 0.114289 -0.163800
v 1.572436 0.114289 -0.163800
v 1.572436 0.114289 0.163800
v 1.900036 0.114289 0.163800
v 3.572436 0.006289 0.163800
v 3.572436 0.114289 0.163800
v 3.572436 0.114289 -0.163800
v 3.572436 0.006289 -0.163800
v 3.572436 0.006289 -0.163800
v 3.572436 0.114289 -0.163800
v 3.900037 0.114289 -0.163800
v 3.900037 0.006289 -0.163800
v 3.900037 0.006289 -0.163800
v 3.900037 0.114289 -0.163800
v 3.900037 0.114289 0.163800
v 3.900037 0.006289 0.163800
v 3.900037 0.006289 0.163800
v 3.900037 0.114289 0.163800
v 3.572436 0.114289 0.163800
v 3.572436 0.006289 0.163800
v 3.900037 0.114289 -0.163800
v 3.572436 0.114289 -0.163800
v 3.572436 0.114289 0.163800
v 3.900037 0.114289 0.163800
v 2.572436 0.006289 0.163800
v 2.572436 0.114289 0.163800
v 2.572436 0.114289 -0.163800
v 2.572436 0.006289 -0.163800
v 2.572436 0.006289 -0.163800
v 2.572436 0.114289 -0.163800
v 2.900037 0.114289 -0.163800
v 2.900037 0.006289 -0.163800
v 2.900037 0.006289 -0.163800
v 2.900037 0.114289 -0.163800
v 2.900037 0.114289 0.163800
v 2.900037 0.006289 0.163800
v 2.900037 0.006289 0.163800
v 2.900037 0.114289 0.163800
v 2.572436 0.114289 0.163800
v 2.572436 0.006289 0.163800
v 2.900037 0.114289 -0.163800
v 2.572436 0.114289 -0.163800
v 2.572436 0.114289 0.163800
v 2.900037 0.114289 0.163800
v 4.007527 -0.123375 -0.472615
v -3.991948 -0.123375 -0.472615
v -3.991949 -0.123375 -0.605946
v 4.007527 -0.123375 -0.605945
v 4.007527 0.065600 -0.442635
v -3.991948 0.065600 -0.442636
v -3.990585 0.065600 0.442635
v 4.007523 0.065600 0.442636
v -3.990586 0.065600 0.605945
v 4.007523 0.065600 0.605946
v 4.007525 -2.123374 0.442636
v 4.007523 -0.153354 0.442636
v -3.990585 -0.153354 0.442635
v -3.990584 -2.123374 0.442635
v -3.990585 -0.123375 0.472615
v 4.007523 -0.123375 0.472615
v 4.007523 -0.123375 0.605946
v -3.990586 -0.123375 0.605945
v 4.007527 0.065600 -0.605945
v -3.991949 0.065600 -0.605946
v -3.990586 -0.085034 0.644286
v 4.007523 -0.085034 0.644286
v 4.007523 0.027259 0.644286
v -3.990586 0.027259 0.644286
v -3.991949 -0.112145 -0.633056
v 4.007527 -0.112145 -0.633056
v -3.991949 -0.085034 -0.644286
v 4.007527 -0.085034 -0.644286
v -3.990586 -0.112145 0.633056
v 4.007523 -0.112145 0.633056
v 4.007527 0.027259 -0.644286
v -3.991949 0.027259 -0.644286
v -3.991949 0.054370 -0.633056
v 4.007527 0.054370 -0.633056
v -3.990586 0.054370 0.633056
v 4.007523 0.054370 0.633056
v 4.007523 0.054370 0.633056
v -3.990586 0.054370 0.633056
v 4.007527 -0.153354 -0.442635
v -3.990583 -0.153354 -0.442636
v -3.990583 -0.132155 -0.451417
v 4.007527 -0.132155 -0.451416
v -3.990585 -0.132155 0.451416
v 4.007523 -0.132155 0.451417
v 4.007527 -0.153354 -0.442635
v 4.007525 -2.123374 -0.442636
v -3.990582 -2.123374 -0.442636
v -3.990583 -0.153354 -0.442636
v 3.993899 2.031921 0.221962
v 3.993899 2.088657 0.221962
v -4.007527 2.088657 0.221962
v -4.007527 2.031921 0.221962
v 3.993899 2.123374 -0.187245
v -4.007527 2.123374 -0.187245
v -4.007527 2.123374 0.187244
v 3.993899 2.123374 0.187244
v -4.007527 2.031921 -0.221962
v -4.007527 2.088657 -0.221962
v 3.993899 2.088657 -0.221962
v 3.993899 2.031921 -0.221962
v 3.993899 1.997203 -0.187245
v -4.007527 1.997203 -0.187245
v -4.007527 2.007372 -0.211794
v 3.993899 2.007372 -0.211794
v 3.993899 2.113206 -0.211794
v -4.007527 2.113206 -0.211794
v -4.007527 1.997203 0.187244
v 3.993899 1.997203 0.187244
v 3.993899 2.007372 0.211793
v -4.007527 2.007372 0.211793
v 3.993899 2.123374 0.187244
v -4.007527 2.123374 0.187244
v -4.007527 2.113206 0.211793
v 3.993899 2.113206 0.211793
v 3.652172 1.696028 0.032311
v 3.656598 2.015735 0.042054
v 3.694182 2.015735 -0.079638
v 3.703925 1.696028 -0.084064
v 3.703925 1.696028 -0.084064
v 3.694182 2.015735 -0.079638
v 3.815874 2.015735 -0.042055
v 3.820301 1.696028 -0.032312
v 3.820301 1.696028 -0.032312
v 3.815874 2.015735 -0.042055
v 3.778291 2.015735 0.079638
v 3.768548 1.696028 0.084064
v 3.768548 1.696028 0.084064
v 3.778291 2.015735 0.079638
v 3.656598 2.015735 0.042054
v 3.652172 1.696028 0.032311
v 3.650406 0.097492 -0.027277
v 3.647168 0.417199 0.013331
v 3.722905 0.417199 -0.089068
v 3.763513 0.097492 -0.085830
v 3.665375 0.736906 0.055583
v 3.680653 0.736906 -0.070861
v 3.701775 1.056613 0.083206
v 3.653030 1.056613 -0.034461
v 3.740992 1.376320 0.089934
v 3.646302 1.376320 0.004756
v 3.708959 0.097492 0.085830
v 3.749567 0.417199 0.089068
v 3.647168 0.417199 0.013331
v 3.650406 0.097492 -0.027277
v 3.791819 0.736906 0.070861
v 3.665375 0.736906 0.055583
v 3.819443 1.056613 0.034461
v 3.701775 1.056613 0.083206
v 3.826171 1.376320 -0.004756
v 3.740992 1.376320 0.089934
v 3.822066 0.097492 0.027277
v 3.825304 0.417199 -0.013331
v 3.749567 0.417199 0.089068
v 3.708959 0.097492 0.085830
v 3.807097 0.736906 -0.055583
v 3.791819 0.736906 0.070861
v 3.770697 1.056613 -0.083206
v 3.819443 1.056613 0.034461
v 3.731480 1.376320 -0.089935
v 3.826171 1.376320 -0.004756
v 3.763513 0.097492 -0.085830
v 3.722905 0.417199 -0.089068
v 3.825304 0.417199 -0.013331
v 3.822066 0.097492 0.027277
v 3.680653 0.736906 -0.070861
v 3.807097 0.736906 -0.055583
v 3.653030 1.056613 -0.034461
v 3.770697 1.056613 -0.083206
v 3.646302 1.376320 0.004756
v 3.731480 1.376320 -0.089935
v -2.347828 1.696028 0.032311
v -2.343402 2.015735 0.042054
v -2.305818 2.015735 -0.079638
v -2.296075 1.696028 -0.084064
v -2.296075 1.696028 -0.084064
v -2.305818 2.015735 -0.079638
v -2.184126 2.015735 -0.042055
v -2.179699 1.696028 -0.032312
v -2.179699 1.696028 -0.032312
v -2.184126 2.015735 -0.042055
v -2.221709 2.015735 0.079638
v -2.231452 1.696028 0.084064
v -2.231452 1.696028 0.084064
v -2.221709 2.015735 0.079638
v -2.343402 2.015735 0.042054
v -2.347828 1.696028 0.032311
v -2.349593 0.097492 -0.027277
v -2.352832 0.417199 0.013331
v -2.277095 0.417199 -0.089068
v -2.236486 0.097492 -0.085830
v -2.334625 0.736906 0.055583
v -2.319347 0.736906 -0.070861
v -2.298225 1.056613 0.083206
v -2.346970 1.056613 -0.034461
v -2.259008 1.376320 0.089934
v -2.353698 1.376320 0.004756
v -2.291041 0.097492 0.085830
v -2.250433 0.417199 0.089068
v -2.352832 0.417199 0.013331
v -2.349593 0.097492 -0.027277
v -2.208181 0.736906 0.070861
v -2.334625 0.736906 0.055583
v -2.180557 1.056613 0.034461
v -2.298225 1.056613 0.083206
v -2.173829 1.376320 -0.004756
v -2.259008 1.376320 0.089934
v -2.177934 0.097492 0.027277
v -2.174696 0.417199 -0.013331
v -2.250433 0.417199 0.089068
v -2.291041 0.097492 0.085830
v -2.192902 0.736906 -0.055583
v -2.208181 0.736906 0.070861
v -2.229303 1.056613 -0.083206
v -2.180557 1.056613 0.034461
v -2.268520 1.376320 -0.089935
v -2.173829 1.376320 -0.004756
v -2.236486 0.097492 -0.085830
v -2.277095 0.417199 -0.089068
v -2.174696 0.417199 -0.013331
v -2.177934 0.097492 0.027277
v -2.319347 0.736906 -0.070861
v -2.192902 0.736906 -0.055583
v -2.346970 1.056613 -0.034461
v -2.229303 1.056613 -0.083206
v -2.353698 1.376320 0.004756
v -2.268520 1.376320 -0.089935
v -3.347828 1.696028 0.032311
v -3.343402 2.015735 0.042054
v -3.305818 2.015735 -0.079638
v -3.296075 1.696028 -0.084064
v -3.296075 1.696028 -0.084064
v -3.305818 2.015735 -0.079638
v -3.184126 2.015735 -0.042055
v -3.179699 1.696028 -0.032312
v -3.179699 1.696028 -0.032312
v -3.184126 2.015735 -0.042055
v -3.221709 2.015735 0.079638
v -3.231452 1.696028 0.084064
v -3.231452 1.696028 0.084064
v -3.221709 2.015735 0.079638
v -3.343402 2.015735 0.042054
v -3.347828 1.696028 0.032311
v -3.349593 0.097492 -0.027277
v -3.352832 0.417199 0.013331
v -3.277095 0.417199 -0.089068
v -3.236486 0.097492 -0.085830
v -3.334625 0.736906 0.055583
v -3.319347 0.736906 -0.070861
v -3.298225 1.056613 0.083206
v -3.346970 1.056613 -0.034461
v -3.259008 1.376320 0.089934
v -3.353698 1.376320 0.004756
v -3.291041 0.097492 0.085830
v -3.250433 0.417199 0.089068
v -3.352832 0.417199 0.013331
v -3.349593 0.097492 -0.027277
v -3.208181 0.736906 0.070861
v -3.334625 0.736906 0.055583
v -3.180557 1.056613 0.034461
v -3.298225 1.056613 0.083206
v -3.173829 1.376320 -0.004756
v -3.259008 1.376320 0.089934
v -3.177934 0.097492 0.027277
v -3.174696 0.417199 -0.013331
v -3.250433 0.417199 0.089068
v -3.291041 0.097492 0.085830
v -3.192902 0.736906 -0.055583
v -3.208181 0.736906 0.070861
v -3.229303 1.056613 -0.083206
v -3.180557 1.056613 0.034461
v -3.268520 1.376320 -0.089935
v -3.173829 1.376320 -0.004756
v -3.236486 0.097492 -0.085830
v -3.277095 0.417199 -0.089068
v -3.174696 0.417199 -0.013331
v -3.177934 0.097492 0.027277
v -3.319347 0.736906 -0.070861
v -3.192902 0.736906 -0.055583
v -3.346970 1.056613 -0.034461
v -3.229303 1.056613 -0.083206
v -3.353698 1.376320 0.004756
v -3.268520 1.376320 -0.089935
v -1.347828 1.696028 0.032311
v -1.343402 2.015735 0.042054
v -1.305818 2.015735 -0.079638
v -1.296075 1.696028 -0.084064
v -1.296075 1.696028 -0.084064
v -1.305818 2.015735 -0.079638
v -1.184126 2.015735 -0.042055
v -1.179699 1.696028 -0.032312
v -1.179699 1.696028 -0.032312
v -1.184126 2.015735 -0.042055
v -1.221709 2.015735 0.079638
v -1.231452 1.696028 0.084064
v -1.231452 1.696028 0.084064
v -1.221709 2.015735 0.079638
v -1.343402 2.015735 0.042054
v -1.347828 1.696028 0.032311
v -1.349594 0.097492 -0.027277
v -1.352832 0.417199 0.013331
v -1.277095 0.417199 -0.089068
v -1.236486 0.097492 -0.085830
v -1.334625 0.736906 0.055583
v -1.319347 0.736906 -0.070861
v -1.298225 1.056613 0.083206
v -1.346970 1.056613 -0.034461
v -1.259008 1.376320 0.089934
v -1.353698 1.376320 0.004756
v -1.291041 0.097492 0.085830
v -1.250433 0.417199 0.089068
v -1.352832 0.417199 0.013331
v -1.349594 0.097492 -0.027277
v -1.208181 0.736906 0.070861
v -1.334625 0.736906 0.055583
v -1.180558 1.056613 0.034461
v -1.298225 1.056613 0.083206
v -1.173829 1.376320 -0.004756
v -1.259008 1.376320 0.089934
v -1.177934 0.097492 0.027277
v -1.174696 0.417199 -0.013331
v -1.250433 0.417199 0.089068
v -1.291041 0.097492 0.085830
v -1.192902 0.736906 -0.055583
v -1.208181 0.736906 0.070861
v -1.229303 1.056613 -0.083206
v -1.180558 1.056613 0.034461
v -1.268520 1.376320 -0.089935
v -1.173829 1.376320 -0.004756
v -1.236486 0.097492 -0.085830
v -1.277095 0.417199 -0.089068
v -1.174696 0.417199 -0.013331
v -1.177934 0.097492 0.027277
v -1.319347 0.736906 -0.070861
v -1.192902 0.736906 -0.055583
v -1.346970 1.056613 -0.034461
v -1.229303 1.056613 -0.083206
v -1.353698 1.376320 0.004756
v -1.268520 1.376320 -0.089935
v -0.347828 1.696028 0.032311
v -0.343402 2.015735 0.042054
v -0.305818 2.015735 -0.079638
v -0.296075 1.696028 -0.084064
v -0.296075 1.696028 -0.084064
v -0.305818 2.015735 -0.079638
v -0.184126 2.015735 -0.042055
v -0.179700 1.696028 -0.032312
v -0.179700 1.696028 -0.032312
v -0.184126 2.015735 -0.042055
v -0.221709 2.015735 0.079638
v -0.231452 1.696028 0.084064
v -0.231452 1.696028 0.084064
v -0.221709 2.015735 0.079638
v -0.343402 2.015735 0.042054
v -0.347828 1.696028 0.032311
v -0.349594 0.097492 -0.027277
v -0.352832 0.417199 0.013331
v -0.277095 0.417199 -0.089068
v -0.236486 0.097492 -0.085830
v -0.334625 0.736906 0.055583
v -0.319347 0.736906 -0.070861
v -0.298225 1.056613 0.083206
v -0.346970 1.056613 -0.034461
v -0.259008 1.376320 0.089934
v -0.353698 1.376320 0.004756
v -0.291041 0.097492 0.085830
v -0.250433 0.417199 0.089068
v -0.352832 0.417199 0.013331
v -0.349594 0.097492 -0.027277
v -0.208181 0.736906 0.070861
v -0.334625 0.736906 0.055583
v -0.180558 1.056613 0.034461
v -0.298225 1.056613 0.083206
v -0.173829 1.376320 -0.004756
v -0.259008 1.376320 0.089934
v -0.177934 0.097492 0.027277
v -0.174696 0.417199 -0.013331
v -0.250433 0.417199 0.089068
v -0.291041 0.097492 0.085830
v -0.192902 0.736906 -0.055583
v -0.208181 0.736906 0.070861
v -0.229303 1.056613 -0.083206
v -0.180558 1.056613 0.034461
v -0.268520 1.376320 -0.089935
v -0.173829 1.376320 -0.004756
v -0.236486 0.097492 -0.085830
v -0.277095 0.417199 -0.089068
v -0.174696 0.417199 -0.013331
v -0.177934 0.097492 0.027277
v -0.319347 0.736906 -0.070861
v -0.192902 0.736906 -0.055583
v -0.346970 1.056613 -0.034461
v -0.229303 1.056613 -0.083206
v -0.353698 1.376320 0.004756
v -0.268520 1.376320 -0.089935
v 2.652172 1.696028 0.032311
v 2.656598 2.015735 0.042054
v 2.694182 2.015735 -0.079638
v 2.703925 1.696028 -0.084064
v 2.703925 1.696028 -0.084064
v 2.694182 2.015735 -0.079638
v 2.815874 2.015735 -0.042055
v 2.820300 1.696028 -0.032312
v 2.820300 1.696028 -0.032312
v 2.815874 2.015735 -0.042055
v 2.778291 2.015735 0.079638
v 2.768548 1.696028 0.084064
v 2.768548 1.696028 0.084064
v 2.778291 2.015735 0.079638
v 2.656598 2.015735 0.042054
v 2.652172 1.696028 0.032311
v 2.650407 0.097492 -0.027277
v 2.647168 0.417199 0.013331
v 2.722905 0.417199 -0.089068
v 2.763514 0.097492 -0.085830
v 2.665375 0.736906 0.055583
v 2.680653 0.736906 -0.070861
v 2.701775 1.056613 0.083206
v 2.653030 1.056613 -0.034461
v 2.740992 1.376320 0.089934
v 2.646302 1.376320 0.004756
v 2.708959 0.097492 0.085830
v 2.749567 0.417199 0.089068
v 2.647168 0.417199 0.013331
v 2.650407 0.097492 -0.027277
v 2.791819 0.736906 0.070861
v 2.665375 0.736906 0.055583
v 2.819443 1.056613 0.034461
v 2.701775 1.056613 0.083206
v 2.826171 1.376320 -0.004756
v 2.740992 1.376320 0.089934
v 2.822066 0.097492 0.027277
v 2.825304 0.417199 -0.013331
v 2.749567 0.417199 0.089068
v 2.708959 0.097492 0.085830
v 2.807098 0.736906 -0.055583
v 2.791819 0.736906 0.070861
v 2.770697 1.056613 -0.083206
v 2.819443 1.056613 0.034461
v 2.731480 1.376320 -0.089935
v 2.826171 1.376320 -0.004756
v 2.763514 0.097492 -0.085830
v 2.722905 0.417199 -0.089068
v 2.825304 0.417199 -0.013331
v 2.822066 0.097492 0.027277
v 2.680653 0.736906 -0.070861
v 2.807098 0.736906 -0.055583
v 2.653030 1.056613 -0.034461
v 2.770697 1.056613 -0.083206
v 2.646302 1.376320 0.004756
v 2.731480 1.376320 -0.089935
v 1.652172 1.696028 0.032311
v 1.656598 2.015735 0.042054
v 1.694182 2.015735 -0.079638
v 1.703925 1.696028 -0.084064
v 1.703925 1.696028 -0.084064
v 1.694182 2.015735 -0.079638
v 1.815874 2.015735 -0.042055
v 1.820300 1.696028 -0.032312
v 1.820300 1.696028 -0.032312
v 1.815874 2.015735 -0.042055
v 1.778291 2.015735 0.079638
v 1.768548 1.696028 0.084064
v 1.768548 1.696028 0.084064
v 1.778291 2.015735 0.079638
v 1.656598 2.015735 0.042054
v 1.652172 1.696028 0.032311
v 1.650406 0.097492 -0.027277
v 1.647168 0.417199 0.013331
v 1.722906 0.417199 -0.089068
v 1.763514 0.097492 -0.085830
v 1.665375 0.736906 0.055583
v 1.680653 0.736906 -0.070861
v 1.701775 1.056613 0.083206
v 1.653030 1.056613 -0.034461
v 1.740992 1.376320 0.089934
v 1.646302 1.376320 0.004756
v 1.708959 0.097492 0.085830
v 1.749567 0.417199 0.089068
v 1.647168 0.417199 0.013331
v 1.650406 0.097492 -0.027277
v 1.791819 0.736906 0.070861
v 1.665375 0.736906 0.055583
v 1.819442 1.056613 0.034461
v 1.701775 1.056613 0.083206
v 1.826171 1.376320 -0.004756
v 1.740992 1.376320 0.089934
v 1.822066 0.097492 0.027277
v 1.825304 0.417199 -0.013331
v 1.749567 0.417199 0.089068
v 1.708959 0.097492 0.085830
v 1.807098 0.736906 -0.055583
v 1.791819 0.736906 0.070861
v 1.770697 1.056613 -0.083206
v 1.819442 1.056613 0.034461
v 1.731480 1.376320 -0.089935
v 1.826171 1.376320 -0.004756
v 1.763514 0.097492 -0.085830
v 1.722906 0.417199 -0.089068
v 1.825304 0.417199 -0.013331
v 1.822066 0.097492 0.027277
v 1.680653 0.736906 -0.070861
v 1.807098 0.736906 -0.055583
v 1.653030 1.056613 -0.034461
v 1.770697 1.056613 -0.083206
v 1.646302 1.376320 0.004756
v 1.731480 1.376320 -0.089935
v 0.652172 1.696028 0.032311
v 0.656598 2.015735 0.042054
v 0.694182 2.015735 -0.079638
v 0.703925 1.696028 -0.084064
v 0.703925 1.696028 -0.084064
v 0.694182 2.015735 -0.079638
v 0.815874 2.015735 -0.042055
v 0.820300 1.696028 -0.032312
v 0.820300 1.696028 -0.032312
v 0.815874 2.015735 -0.042055
v 0.778291 2.015735 0.079638
v 0.768548 1.696028 0.084064
v 0.768548 1.696028 0.084064
v 0.778291 2.015735 0.079638
v 0.656598 2.015735 0.042054
v 0.652172 1.696028 0.032311
v 0.650406 0.097492 -0.027277
v 0.647168 0.417199 0.013331
v 0.722906 0.417199 -0.089068
v 0.763514 0.097492 -0.085830
v 0.665375 0.736906 0.055583
v 0.680653 0.736906 -0.070861
v 0.701775 1.056613 0.083206
v 0.653030 1.056613 -0.034461
v 0.740992 1.376320 0.089934
v 0.646302 1.376320 0.004756
v 0.708959 0.097492 0.085830
v 0.749567 0.417199 0.089068
v 0.647168 0.417199 0.013331
v 0.650406 0.097492 -0.027277
v 0.791819 0.736906 0.070861
v 0.665375 0.736906 0.055583
v 0.819442 1.056613 0.034461
v 0.701775 1.056613 0.083206
v 0.826171 1.376320 -0.004756
v 0.740992 1.376320 0.089934
v 0.822066 0.097492 0.027277
v 0.825304 0.417199 -0.013331
v 0.749567 0.417199 0.089068
v 0.708959 0.097492 0.085830
v 0.807098 0.736906 -0.055583
v 0.791819 0.736906 0.070861
v 0.770697 1.056613 -0.083206
v 0.819442 1.056613 0.034461
v 0.731480 1.376320 -0.089935
v 0.826171 1.376320 -0.004756
v 0.763514 0.097492 -0.085830
v 0.722906 0.417199 -0.089068
v 0.825304 0.417199 -0.013331
v 0.822066 0.097492 0.027277
v 0.680653 0.736906 -0.070861
v 0.807098 0.736906 -0.055583
v 0.653030 1.056613 -0.034461
v 0.770697 1.056613 -0.083206
v 0.646302 1.376320 0.004756
v 0.731480 1.376320 -0.089935
v -3.990585 0.065600 0.442635
v -3.990585 -0.093395 0.442635
v -3.990585 -0.123375 0.472615
v -3.990586 -0.123375 0.605945
v -3.990586 -0.112145 0.633056
v -3.990586 -0.085034 0.644286
v -3.990586 0.027259 0.644286
v -3.990586 0.054370 0.633056
v -3.990586 0.065600 0.605945
v 4.007523 -0.123375 0.472615
v 4.007523 -0.093395 0.442636
v 4.007523 0.065600 0.442636
v 4.007523 0.065600 0.605946
v 4.007523 0.054370 0.633056
v 4.007523 0.027259 0.644286
v 4.007523 -0.085034 0.644286
v 4.007523 -0.112145 0.633056
v 4.007523 -0.123375 0.605946
v -3.991948 -0.093395 -0.442636
v -3.990583 -0.123375 -0.412656
v -3.990585 -0.123375 0.412656
v -3.991948 0.065600 -0.442636
v 4.007525 -2.123374 -0.442636
v 4.007527 -0.153354 -0.442635
v 4.007527 -0.123375 -0.412656
v 4.007523 -0.123375 0.412656
v 4.007523 -0.153354 0.442636
v 4.007525 -2.123374 0.442636
v 4.007527 0.065600 -0.442635
v 4.007527 -0.093395 -0.442635
v 4.007527 -0.123375 -0.472615
v 4.007527 -0.123375 -0.605945
v 4.007527 -0.112145 -0.633056
v 4.007527 -0.085034 -0.644286
v 4.007527 0.027259 -0.644286
v 4.007527 0.054370 -0.633056
v 4.007527 0.065600 -0.605945
v -3.991948 -0.123375 -0.472615
v -3.991949 0.065600 -0.605946
v -3.991949 0.054370 -0.633056
v -3.991949 0.027259 -0.644286
v -3.991949 -0.085034 -0.644286
v -3.991949 -0.112145 -0.633056
v -3.991949 -0.123375 -0.605946
v -3.990584 -2.123374 0.442635
v -3.990585 -0.153354 0.442635
v -3.990585 -0.123375 0.412656
v -3.990583 -0.123375 -0.412656
v -3.990583 -0.153354 -0.442636
v -3.990582 -2.123374 -0.442636
v 4.007527 -0.132155 -0.451416
v 4.007523 -0.132155 0.451417
v -3.990585 -0.153354 0.442635
v -3.990585 -0.132155 0.451416
v -3.990583 -0.132155 -0.451417
v -3.990583 -0.153354 -0.442636
v 3.993899 1.997203 -0.187245
v 3.993899 2.007372 -0.211794
v 3.993899 2.031921 -0.221962
v 3.993899 2.088657 -0.221962
v 3.993899 2.113206 -0.211794
v 3.993899 2.123374 -0.187245
v 3.993899 2.123374 0.187244
v 3.993899 2.113206 0.211793
v 3.993899 2.088657 0.221962
v 3.993899 2.031921 0.221962
v 3.993899 2.007372 0.211793
v 3.993899 1.997203 0.187244
v -4.007527 1.997203 0.187244
v -4.007527 2.007372 0.211793
v -4.007527 2.031921 0.221962
v -4.007527 2.088657 0.221962
v -4.007527 2.113206 0.211793
v -4.007527 2.123374 0.187244
v -4.007527 2.123374 -0.187245
v -4.007527 2.113206 -0.211794
v -4.007527 2.088657 -0.221962
v -4.007527 2.031921 -0.221962
v -4.007527 2.007372 -0.211794
v -4.007527 1.997203 -0.187245
vn -1.0000 -0.0000 -0.0000
vn -0.0000 -0.0000 -1.0000
vn 1.0000 -0.0000 -0.0000
vn -0.0000 -0.0000 1.0000
vn -0.0000 1.0000 -0.0000
vn -0.0000 -0.9808 -0.1951
vn -0.0000 -0.9815 -0.1913
vn -0.0000 0.9808 0.1951
vn -0.0000 -0.1951 0.9808
vn -0.0000 -0.9808 0.1951
vn -0.0000 0.9808 -0.1951
vn -0.0000 0.1951 0.9808
vn -0.0000 -0.7071 -0.7071
vn -0.0000 -0.1951 -0.9808
vn -0.0000 -0.7071 0.7071
vn -0.0000 0.1951 -0.9808
vn -0.0000 0.7071 -0.7071
vn -0.0000 0.7071 0.7071
vn -0.0000 -0.7125 -0.7016
vn -0.0000 -0.1950 -0.9808
vn -0.0000 0.9808 0.1950
vn -0.8943 -0.0000 -0.4475
vn -0.9363 -0.0000 -0.3513
vn -0.8916 -0.0000 -0.4528
vn 0.4475 -0.0000 -0.8943
vn 0.3513 -0.0000 -0.9363
vn 0.4528 -0.0000 -0.8916
vn 0.8943 -0.0000 0.4475
vn 0.9363 -0.0000 0.3513
vn 0.8916 -0.0000 0.4528
vn -0.4475 -0.0000 0.8943
vn -0.3513 -0.0000 0.9363
vn -0.4528 -0.0000 0.8916
vn -0.6487 -0.0000 -0.7611
vn -0.8211 -0.0000 -0.5708
vn -0.8038 -0.0000 -0.5949
vn -0.9945 -0.0000 -0.1044
vn -0.9905 -0.0000 -0.1372
vn -0.9246 -0.0000 0.3809
vn -0.9352 -0.0000 0.3542
vn -0.6858 -0.0000 0.7278
vn -0.6989 -0.0000 0.7153
vn -0.7611 -0.0000 0.6487
vn -0.5708 -0.0000 0.8211
vn -0.5949 -0.0000 0.8038
vn -0.7611 -0.0000 0.6486
vn -0.1044 -0.0000 0.9945
vn -0.1372 -0.0000 0.9905
vn 0.3809 -0.0000 0.9246
vn 0.3542 -0.0000 0.9352
vn 0.7278 -0.0000 0.6858
vn 0.7152 -0.0000 0.6989
vn 0.6487 -0.0000 0.7611
vn 0.8211 -0.0000 0.5708
vn 0.8038 -0.0000 0.5949
vn 0.6486 -0.0000 0.7611
vn 0.9945 -0.0000 0.1044
vn 0.9905 -0.0000 0.1372
vn 0.9246 -0.0000 -0.3809
vn 0.9352 -0.0000 -0.3542
vn 0.6858 -0.0000 -0.7278
vn 0.6989 -0.0000 -0.7153
vn 0.7611 -0.0000 -0.6487
vn 0.5708 -0.0000 -0.8211
vn 0.5949 -0.0000 -0.8038
vn 0.7611 -0.0000 -0.6486
vn 0.1044 -0.0000 -0.9945
vn 0.1372 -0.0000 -0.9905
vn -0.3809 -0.0000 -0.9246
vn -0.3542 -0.0000 -0.9352
vn -0.7278 -0.0000 -0.6858
vn -0.7153 -0.0000 -0.6989
vn -1.0000 -0.0018 0.0007
vn -1.0000 -0.0013 0.0005
vn -1.0000 -0.0018 0.0008
vn -1.0000 -0.0011 0.0007
vn -1.0000 -0.0086 0.0046
vn -0.9999 -0.0097 0.0055
vn -0.9994 -0.0291 0.0164
vt 0.220959 0.000334
vt 0.212201 0.007511
vt 0.233970 0.034079
vt 0.242729 0.026902
vt 0.253427 0.056152
vt 0.264499 0.053470
vt 0.240370 0.084018
vt 0.253831 0.089153
vt 0.224793 0.124851
vt 0.238254 0.129986
vt 0.212201 0.062248
vt 0.167993 0.000334
vt 0.159234 0.007511
vt 0.181004 0.034079
vt 0.189763 0.026902
vt 0.200461 0.056152
vt 0.211532 0.053470
vt 0.187403 0.084018
vt 0.200865 0.089153
vt 0.171826 0.124851
vt 0.185288 0.129986
vt 0.159234 0.062248
vt 0.062060 0.000334
vt 0.053301 0.007511
vt 0.075071 0.034079
vt 0.083829 0.026902
vt 0.094528 0.056152
vt 0.105599 0.053470
vt 0.081470 0.084018
vt 0.094932 0.089153
vt 0.065893 0.124851
vt 0.079355 0.129986
vt 0.053301 0.062248
vt 0.115026 0.000334
vt 0.106268 0.007511
vt 0.128037 0.034079
vt 0.136796 0.026902
vt 0.147494 0.056152
vt 0.158566 0.053470
vt 0.134437 0.084018
vt 0.147898 0.089153
vt 0.118860 0.124851
vt 0.132321 0.129986
vt 0.106268 0.062248
vt 0.911309 0.739693
vt 0.902550 0.746870
vt 0.924320 0.773437
vt 0.933078 0.766261
vt 0.943777 0.795511
vt 0.954848 0.792828
vt 0.930719 0.823376
vt 0.944181 0.828512
vt 0.915142 0.864210
vt 0.928604 0.869345
vt 0.902550 0.801607
vt 0.009093 0.000334
vt 0.000334 0.007511
vt 0.022104 0.034079
vt 0.030863 0.026902
vt 0.041561 0.056152
vt 0.052632 0.053470
vt 0.028504 0.084018
vt 0.041965 0.089153
vt 0.012927 0.124851
vt 0.026388 0.129986
vt 0.000334 0.062248
vt 0.911309 0.870014
vt 0.902550 0.877190
vt 0.924320 0.903758
vt 0.933078 0.896581
vt 0.943777 0.925832
vt 0.954848 0.923149
vt 0.930719 0.953697
vt 0.944181 0.958832
vt 0.915142 0.994530
vt 0.928604 0.999666
vt 0.902550 0.931927
vt 0.911309 0.609372
vt 0.902550 0.616549
vt 0.924320 0.643117
vt 0.933078 0.635940
vt 0.943777 0.665190
vt 0.954848 0.662508
vt 0.930719 0.693056
vt 0.944181 0.698191
vt 0.915142 0.733889
vt 0.928604 0.739024
vt 0.902550 0.671286
vt 0.769442 0.789315
vt 0.000833 0.789325
vt 0.000822 0.802741
vt 0.769431 0.802731
vt 0.768943 0.885495
vt 0.000335 0.885504
vt 0.000467 0.970563
vt 0.768944 0.970553
vt 0.000467 0.986254
vt 0.768944 0.986246
vt 0.759823 0.572694
vt 0.759823 0.385624
vt 0.000334 0.385624
vt 0.000334 0.572694
vt 0.000559 0.359114
vt 0.760048 0.359114
vt 0.760058 0.345857
vt 0.000569 0.345857
vt 0.768943 0.869803
vt 0.000334 0.869813
vt 0.000791 0.319347
vt 0.760279 0.319347
vt 0.760320 0.306091
vt 0.000831 0.306091
vt 0.000711 0.816155
vt 0.769320 0.816145
vt 0.000599 0.829569
vt 0.769208 0.829560
vt 0.000680 0.332602
vt 0.760169 0.332602
vt 0.769167 0.842975
vt 0.000558 0.842985
vt 0.000446 0.856399
vt 0.769055 0.856389
vt 0.000355 0.999666
vt 0.768833 0.999658
vt 0.760431 0.292836
vt 0.000942 0.292836
vt 0.769669 0.762511
vt 0.001744 0.762511
vt 0.001630 0.775913
vt 0.769555 0.775913
vt 0.000447 0.372369
vt 0.759936 0.372369
vt 0.769669 0.573363
vt 0.001744 0.573363
vt 0.603127 0.162193
vt 0.603018 0.151681
vt 0.000647 0.151681
vt 0.000756 0.162193
vt 0.602705 0.263975
vt 0.000334 0.263974
vt 0.000334 0.292167
vt 0.602705 0.292167
vt 0.000402 0.232437
vt 0.000511 0.242949
vt 0.602882 0.242949
vt 0.602773 0.232437
vt 0.602950 0.211411
vt 0.000579 0.211411
vt 0.000491 0.221924
vt 0.602862 0.221924
vt 0.602794 0.253462
vt 0.000423 0.253462
vt 0.000579 0.183218
vt 0.602950 0.183218
vt 0.603039 0.172706
vt 0.000668 0.172706
vt 0.603195 0.130655
vt 0.000824 0.130655
vt 0.000736 0.141168
vt 0.603107 0.141168
vt 0.829079 0.624226
vt 0.829930 0.590216
vt 0.816384 0.590216
vt 0.815533 0.624226
vt 0.802839 0.590216
vt 0.801988 0.624226
vt 0.789294 0.590216
vt 0.788442 0.624226
vt 0.842624 0.624226
vt 0.843475 0.590216
vt 0.824519 0.794607
vt 0.828196 0.760528
vt 0.814651 0.760528
vt 0.810974 0.794607
vt 0.832425 0.726438
vt 0.818879 0.726438
vt 0.836621 0.692349
vt 0.823075 0.692349
vt 0.840200 0.658273
vt 0.826655 0.658273
vt 0.783883 0.794607
vt 0.787560 0.760528
vt 0.774015 0.760528
vt 0.770338 0.794607
vt 0.791789 0.726438
vt 0.778244 0.726438
vt 0.795985 0.692349
vt 0.782439 0.692349
vt 0.799564 0.658273
vt 0.786019 0.658273
vt 0.797428 0.794607
vt 0.801105 0.760528
vt 0.805334 0.726438
vt 0.809530 0.692349
vt 0.813109 0.658273
vt 0.887264 0.824080
vt 0.884557 0.790168
vt 0.871086 0.791583
vt 0.873793 0.825496
vt 0.857615 0.792998
vt 0.860322 0.826911
vt 0.844144 0.794413
vt 0.846850 0.828326
vt 0.900735 0.822665
vt 0.898029 0.788753
vt 0.900529 0.994005
vt 0.900626 0.959729
vt 0.887155 0.961145
vt 0.887058 0.995421
vt 0.901270 0.925384
vt 0.887799 0.926799
vt 0.901882 0.891043
vt 0.888410 0.892458
vt 0.901881 0.856779
vt 0.888410 0.858194
vt 0.860116 0.998251
vt 0.860212 0.963975
vt 0.846741 0.965390
vt 0.846644 0.999666
vt 0.860857 0.929629
vt 0.847385 0.931044
vt 0.861468 0.895288
vt 0.847997 0.896703
vt 0.861468 0.861024
vt 0.847997 0.862440
vt 0.873587 0.996836
vt 0.873683 0.962560
vt 0.874328 0.928214
vt 0.874939 0.893873
vt 0.874939 0.859609
vt 0.887264 0.612499
vt 0.884557 0.578587
vt 0.871086 0.580002
vt 0.873793 0.613914
vt 0.857615 0.581417
vt 0.860322 0.615329
vt 0.844144 0.582832
vt 0.846850 0.616744
vt 0.900735 0.611084
vt 0.898029 0.577172
vt 0.900529 0.782424
vt 0.900626 0.748148
vt 0.887155 0.749563
vt 0.887058 0.783839
vt 0.901270 0.713803
vt 0.887799 0.715218
vt 0.901882 0.679461
vt 0.888410 0.680876
vt 0.901881 0.645198
vt 0.888410 0.646613
vt 0.860116 0.786669
vt 0.860212 0.752393
vt 0.846741 0.753808
vt 0.846644 0.788084
vt 0.860857 0.718048
vt 0.847385 0.719463
vt 0.861468 0.683707
vt 0.847997 0.685122
vt 0.861468 0.649443
vt 0.847997 0.650858
vt 0.873587 0.785254
vt 0.873683 0.750978
vt 0.874328 0.716633
vt 0.874939 0.682292
vt 0.874939 0.648028
vt 0.941928 0.397109
vt 0.939222 0.363196
vt 0.925751 0.364612
vt 0.928457 0.398524
vt 0.912279 0.366027
vt 0.914986 0.399939
vt 0.898808 0.367442
vt 0.901515 0.401354
vt 0.955400 0.395694
vt 0.952693 0.361781
vt 0.955193 0.567034
vt 0.955290 0.532758
vt 0.941819 0.534173
vt 0.941722 0.568449
vt 0.955934 0.498412
vt 0.942463 0.499827
vt 0.956546 0.464071
vt 0.943075 0.465486
vt 0.956546 0.429807
vt 0.943074 0.431223
vt 0.914780 0.571279
vt 0.914877 0.537003
vt 0.901405 0.538418
vt 0.901309 0.572694
vt 0.915521 0.502658
vt 0.902050 0.504073
vt 0.916132 0.468316
vt 0.902661 0.469731
vt 0.916132 0.434053
vt 0.902661 0.435468
vt 0.928251 0.569864
vt 0.928348 0.535588
vt 0.928992 0.501242
vt 0.929603 0.466901
vt 0.929603 0.432638
vt 0.941930 0.163633
vt 0.939223 0.129721
vt 0.925752 0.131136
vt 0.928458 0.165048
vt 0.912281 0.132551
vt 0.914987 0.166463
vt 0.898809 0.133966
vt 0.901516 0.167878
vt 0.955401 0.162218
vt 0.952694 0.128306
vt 0.955194 0.333558
vt 0.955291 0.299282
vt 0.941820 0.300697
vt 0.941723 0.334973
vt 0.955935 0.264937
vt 0.942464 0.266352
vt 0.956547 0.230595
vt 0.943076 0.232010
vt 0.956547 0.196332
vt 0.943076 0.197747
vt 0.914781 0.337803
vt 0.914877 0.303527
vt 0.901406 0.304942
vt 0.901309 0.339218
vt 0.915522 0.269182
vt 0.902051 0.270597
vt 0.916133 0.234840
vt 0.902662 0.236255
vt 0.916133 0.200577
vt 0.902662 0.201992
vt 0.928252 0.336388
vt 0.928349 0.302112
vt 0.928993 0.267767
vt 0.929605 0.233425
vt 0.929604 0.199162
vt 0.829079 0.829285
vt 0.829930 0.795275
vt 0.816385 0.795275
vt 0.815533 0.829285
vt 0.802839 0.795275
vt 0.801988 0.829285
vt 0.789294 0.795275
vt 0.788443 0.829285
vt 0.842624 0.829285
vt 0.843475 0.795275
vt 0.824519 0.999666
vt 0.828196 0.965587
vt 0.814651 0.965587
vt 0.810974 0.999666
vt 0.832425 0.931497
vt 0.818880 0.931497
vt 0.836621 0.897408
vt 0.823075 0.897408
vt 0.840200 0.863332
vt 0.826655 0.863332
vt 0.783883 0.999666
vt 0.787560 0.965587
vt 0.774015 0.965587
vt 0.770338 0.999666
vt 0.791789 0.931497
vt 0.778244 0.931497
vt 0.795985 0.897408
vt 0.782439 0.897408
vt 0.799564 0.863332
vt 0.786019 0.863332
vt 0.797428 0.999666
vt 0.801105 0.965587
vt 0.805334 0.931497
vt 0.809530 0.897408
vt 0.813109 0.863332
vt 0.662605 0.121786
vt 0.663456 0.087777
vt 0.649910 0.087777
vt 0.649059 0.121786
vt 0.636365 0.087777
vt 0.635514 0.121786
vt 0.622820 0.087777
vt 0.621969 0.121786
vt 0.676150 0.121786
vt 0.677001 0.087777
vt 0.658045 0.292167
vt 0.661722 0.258089
vt 0.648177 0.258089
vt 0.644500 0.292167
vt 0.665951 0.223999
vt 0.652405 0.223999
vt 0.670146 0.189909
vt 0.656601 0.189909
vt 0.673726 0.155833
vt 0.660181 0.155833
vt 0.617409 0.292167
vt 0.621086 0.258089
vt 0.607541 0.258089
vt 0.603864 0.292167
vt 0.625315 0.223999
vt 0.611769 0.223999
vt 0.629510 0.189909
vt 0.615965 0.189909
vt 0.633090 0.155833
vt 0.619545 0.155833
vt 0.630954 0.292167
vt 0.634631 0.258089
vt 0.638860 0.223999
vt 0.643056 0.189909
vt 0.646635 0.155833
vt 0.736410 0.121786
vt 0.737261 0.087777
vt 0.723716 0.087777
vt 0.722865 0.121786
vt 0.710170 0.087777
vt 0.709319 0.121786
vt 0.696625 0.087777
vt 0.695774 0.121786
vt 0.749955 0.121786
vt 0.750807 0.087777
vt 0.731851 0.292167
vt 0.735528 0.258089
vt 0.721982 0.258089
vt 0.718305 0.292167
vt 0.739757 0.223999
vt 0.726211 0.223999
vt 0.743952 0.189909
vt 0.730407 0.189909
vt 0.747531 0.155833
vt 0.733986 0.155833
vt 0.691215 0.292167
vt 0.694892 0.258089
vt 0.681346 0.258089
vt 0.677669 0.292167
vt 0.699121 0.223999
vt 0.685575 0.223999
vt 0.703316 0.189909
vt 0.689771 0.189909
vt 0.706895 0.155833
vt 0.693350 0.155833
vt 0.704760 0.292167
vt 0.708437 0.258089
vt 0.712666 0.223999
vt 0.716861 0.189909
vt 0.720441 0.155833
vt 0.896945 0.341088
vt 0.898140 0.355913
vt 0.898140 0.343971
vt 0.896945 0.358796
vt 0.894062 0.339893
vt 0.894062 0.359991
vt 0.876694 0.339893
vt 0.879883 0.359991
vt 0.876694 0.356802
vt 0.762294 0.125322
vt 0.761099 0.110496
vt 0.761099 0.122438
vt 0.762294 0.107612
vt 0.765177 0.126516
vt 0.765177 0.106418
vt 0.779357 0.126516
vt 0.782545 0.106418
vt 0.782545 0.123328
vt 0.782548 0.339893
vt 0.873506 0.359991
vt 0.785732 0.359990
vt 0.782542 0.356800
vt 0.876695 0.339218
vt 0.782545 0.129705
vt 0.782546 0.339218
vt 0.785734 0.126516
vt 0.873506 0.126516
vt 0.876695 0.129704
vt 0.879883 0.126516
vt 0.876695 0.106418
vt 0.876695 0.123328
vt 0.894063 0.106418
vt 0.894063 0.126516
vt 0.896947 0.125322
vt 0.896947 0.107612
vt 0.898141 0.122438
vt 0.898141 0.110496
vt 0.765182 0.339887
vt 0.779353 0.359987
vt 0.765175 0.359982
vt 0.762299 0.341080
vt 0.762292 0.358787
vt 0.761104 0.343962
vt 0.761099 0.355903
vt 0.785733 0.359991
vt 0.782544 0.572694
vt 0.782544 0.363179
vt 0.876694 0.572694
vt 0.873506 0.359990
vt 0.876694 0.363179
vt 0.877629 0.127450
vt 0.781611 0.127450
vt 0.877628 0.360924
vt 0.781610 0.360925
vt 0.266249 0.128905
vt 0.265167 0.120260
vt 0.265167 0.126294
vt 0.266249 0.117649
vt 0.268860 0.129986
vt 0.268860 0.116568
vt 0.308687 0.129986
vt 0.308687 0.116568
vt 0.311298 0.128905
vt 0.311298 0.117649
vt 0.312379 0.126294
vt 0.312379 0.120260
vt 0.771419 0.588466
vt 0.770338 0.579821
vt 0.770338 0.585855
vt 0.771419 0.577211
vt 0.774030 0.589548
vt 0.774030 0.576129
vt 0.813857 0.589548
vt 0.813857 0.576129
vt 0.816468 0.588466
vt 0.816468 0.577211
vt 0.817549 0.585855
vt 0.817549 0.579821
s 0
usemtl None
f 1/1/1 2/2/1 3/3/1
f 1/1/1 3/3/1 4/4/1
f 5/4/2 6/3/2 7/5/2
f 5/4/2 7/5/2 8/6/2
f 9/6/3 10/5/3 11/7/3
f 9/6/3 11/7/3 12/8/3
f 13/8/4 14/7/4 15/9/4
f 13/8/4 15/9/4 16/10/4
f 17/5/5 18/3/5 19/11/5
f 17/5/5 19/11/5 20/7/5
f 21/12/1 22/13/1 23/14/1
f 21/12/1 23/14/1 24/15/1
f 25/15/2 26/14/2 27/16/2
f 25/15/2 27/16/2 28/17/2
f 29/17/3 30/16/3 31/18/3
f 29/17/3 31/18/3 32/19/3
f 33/19/4 34/18/4 35/20/4
f 33/19/4 35/20/4 36/21/4
f 37/16/5 38/14/5 39/22/5
f 37/16/5 39/22/5 40/18/5
f 41/23/1 42/24/1 43/25/1
f 41/23/1 43/25/1 44/26/1
f 45/26/2 46/25/2 47/27/2
f 45/26/2 47/27/2 48/28/2
f 49/28/3 50/27/3 51/29/3
f 49/28/3 51/29/3 52/30/3
f 53/30/4 54/29/4 55/31/4
f 53/30/4 55/31/4 56/32/4
f 57/27/5 58/25/5 59/33/5
f 57/27/5 59/33/5 60/29/5
f 61/34/1 62/35/1 63/36/1
f 61/34/1 63/36/1 64/37/1
f 65/37/2 66/36/2 67/38/2
f 65/37/2 67/38/2 68/39/2
f 69/39/3 70/38/3 71/40/3
f 69/39/3 71/40/3 72/41/3
f 73/41/4 74/40/4 75/42/4
f 73/41/4 75/42/4 76/43/4
f 77/38/5 78/36/5 79/44/5
f 77/38/5 79/44/5 80/40/5
f 81/45/1 82/46/1 83/47/1
f 81/45/1 83/47/1 84/48/1
f 85/48/2 86/47/2 87/49/2
f 85/48/2 87/49/2 88/50/2
f 89/50/3 90/49/3 91/51/3
f 89/50/3 91/51/3 92/52/3
f 93/52/4 94/51/4 95/53/4
f 93/52/4 95/53/4 96/54/4
f 97/49/5 98/47/5 99/55/5
f 97/49/5 99/55/5 100/51/5
f 101/56/1 102/57/1 103/58/1
f 101/56/1 103/58/1 104/59/1
f 105/59/2 106/58/2 107/60/2
f 105/59/2 107/60/2 108/61/2
f 109/61/3 110/60/3 111/62/3
f 109/61/3 111/62/3 112/63/3
f 113/63/4 114/62/4 115/64/4
f 113/63/4 115/64/4 116/65/4
f 117/60/5 118/58/5 119/66/5
f 117/60/5 119/66/5 120/62/5
f 121/67/1 122/68/1 123/69/1
f 121/67/1 123/69/1 124/70/1
f 125/70/2 126/69/2 127/71/2
f 125/70/2 127/71/2 128/72/2
f 129/72/3 130/71/3 131/73/3
f 129/72/3 131/73/3 132/74/3
f 133/74/4 134/73/4 135/75/4
f 133/74/4 135/75/4 136/76/4
f 137/71/5 138/69/5 139/77/5
f 137/71/5 139/77/5 140/73/5
f 141/78/1 142/79/1 143/80/1
f 141/78/1 143/80/1 144/81/1
f 145/81/2 146/80/2 147/82/2
f 145/81/2 147/82/2 148/83/2
f 149/83/3 150/82/3 151/84/3
f 149/83/3 151/84/3 152/85/3
f 153/85/4 154/84/4 155/86/4
f 153/85/4 155/86/4 156/87/4
f 157/82/5 158/80/5 159/88/5
f 157/82/5 159/88/5 160/84/5
s 1
f 161/89/6 162/90/7 163/91/6
f 161/89/6 163/91/6 164/92/6
s 0
f 165/93/5 166/94/5 167/95/5
f 165/93/5 167/95/5 168/96/5
s 1
f 168/96/5 167/95/5 169/97/8
f 168/96/5 169/97/8 170/98/8
f 171/99/4 172/100/9 173/101/9
f 171/99/4 173/101/9 174/102/4
f 175/103/10 176/104/10 177/105/10
f 175/103/10 177/105/10 178/106/10
f 166/94/5 165/93/5 179/107/11
f 166/94/5 179/107/11 180/108/11
f 181/109/9 182/110/9 183/111/12
f 181/109/9 183/111/12 184/112/12
f 164/92/6 163/91/6 185/113/13
f 164/92/6 185/113/13 186/114/13
f 186/114/13 185/113/13 187/115/14
f 186/114/13 187/115/14 188/116/14
f 182/110/9 181/109/9 189/117/15
f 182/110/9 189/117/15 190/118/15
f 190/118/15 189/117/15 178/106/10
f 190/118/15 178/106/10 177/105/10
f 191/119/16 192/120/16 193/121/17
f 191/119/16 193/121/17 194/122/17
f 194/122/17 193/121/17 180/108/11
f 194/122/17 180/108/11 179/107/11
f 170/98/8 169/97/8 195/123/18
f 170/98/8 195/123/18 196/124/18
f 197/125/18 198/126/18 184/112/12
f 197/125/18 184/112/12 183/111/12
f 188/116/14 187/115/14 192/120/16
f 188/116/14 192/120/16 191/119/16
f 199/127/14 200/128/14 201/129/19
f 199/127/14 201/129/19 202/130/13
f 202/130/13 201/129/19 162/90/7
f 202/130/13 162/90/7 161/89/6
f 176/104/10 175/103/10 203/131/15
f 176/104/10 203/131/15 204/132/15
f 204/132/15 203/131/15 173/101/9
f 204/132/15 173/101/9 172/100/9
f 205/133/20 206/127/2 207/128/2
f 205/133/20 207/128/2 208/134/20
f 209/135/9 210/136/12 211/137/12
f 209/135/9 211/137/12 212/138/9
f 213/139/11 214/140/11 215/141/21
f 213/139/11 215/141/21 216/142/21
f 217/143/14 218/144/16 219/145/16
f 217/143/14 219/145/16 220/146/14
f 221/147/6 222/148/6 223/149/13
f 221/147/6 223/149/13 224/150/13
f 224/150/13 223/149/13 217/143/14
f 224/150/13 217/143/14 220/146/14
f 214/140/11 213/139/11 225/151/17
f 214/140/11 225/151/17 226/152/17
f 226/152/17 225/151/17 219/145/16
f 226/152/17 219/145/16 218/144/16
f 227/153/10 228/154/10 229/155/15
f 227/153/10 229/155/15 230/156/15
f 230/156/15 229/155/15 209/135/9
f 230/156/15 209/135/9 212/138/9
f 231/157/8 232/158/8 233/159/18
f 231/157/8 233/159/18 234/160/18
f 234/160/18 233/159/18 211/137/12
f 234/160/18 211/137/12 210/136/12
f 222/148/6 221/147/6 228/154/10
f 222/148/6 228/154/10 227/153/10
f 235/161/22 236/162/23 237/163/23
f 235/161/22 237/163/23 238/164/24
f 239/164/25 240/163/26 241/165/26
f 239/164/25 241/165/26 242/166/27
f 243/166/28 244/165/29 245/167/29
f 243/166/28 245/167/29 246/168/30
f 247/169/31 248/170/32 249/162/32
f 247/169/31 249/162/32 250/161/33
f 251/171/34 252/172/35 253/173/36
f 251/171/34 253/173/36 254/174/34
f 252/172/35 255/175/37 256/176/38
f 252/172/35 256/176/38 253/173/36
f 255/175/37 257/177/39 258/178/40
f 255/175/37 258/178/40 256/176/38
f 257/177/39 259/179/41 260/180/42
f 257/177/39 260/180/42 258/178/40
f 259/179/41 247/169/31 250/161/33
f 259/179/41 250/161/33 260/180/42
f 261/181/43 262/182/44 263/183/45
f 261/181/43 263/183/45 264/184/46
f 262/182/44 265/185/47 266/186/48
f 262/182/44 266/186/48 263/183/45
f 265/185/47 267/187/49 268/188/50
f 265/185/47 268/188/50 266/186/48
f 267/187/49 269/189/51 270/190/52
f 267/187/49 270/190/52 268/188/50
f 269/189/51 243/166/28 246/168/30
f 269/189/51 246/168/30 270/190/52
f 271/191/53 272/192/54 273/182/55
f 271/191/53 273/182/55 274/181/56
f 272/192/54 275/193/57 276/185/58
f 272/192/54 276/185/58 273/182/55
f 275/193/57 277/194/59 278/187/60
f 275/193/57 278/187/60 276/185/58
f 277/194/59 279/195/61 280/189/62
f 277/194/59 280/189/62 278/187/60
f 279/195/61 239/164/25 242/166/27
f 279/195/61 242/166/27 280/189/62
f 281/174/63 282/173/64 283/192/65
f 281/174/63 283/192/65 284/191/66
f 282/173/64 285/176/67 286/193/68
f 282/173/64 286/193/68 283/192/65
f 285/176/67 287/178/69 288/194/70
f 285/176/67 288/194/70 286/193/68
f 287/178/69 289/180/71 290/195/72
f 287/178/69 290/195/72 288/194/70
f 289/180/71 235/161/22 238/164/24
f 289/180/71 238/164/24 290/195/72
f 291/196/22 292/197/23 293/198/23
f 291/196/22 293/198/23 294/199/24
f 295/199/25 296/198/26 297/200/26
f 295/199/25 297/200/26 298/201/27
f 299/201/28 300/200/29 301/202/29
f 299/201/28 301/202/29 302/203/30
f 303/204/31 304/205/32 305/197/32
f 303/204/31 305/197/32 306/196/33
f 307/206/34 308/207/35 309/208/36
f 307/206/34 309/208/36 310/209/34
f 308/207/35 311/210/37 312/211/38
f 308/207/35 312/211/38 309/208/36
f 311/210/37 313/212/39 314/213/40
f 311/210/37 314/213/40 312/211/38
f 313/212/39 315/214/41 316/215/42
f 313/212/39 316/215/42 314/213/40
f 315/214/41 303/204/31 306/196/33
f 315/214/41 306/196/33 316/215/42
f 317/216/43 318/217/44 319/218/45
f 317/216/43 319/218/45 320/219/43
f 318/217/44 321/220/47 322/221/48
f 318/217/44 322/221/48 319/218/45
f 321/220/47 323/222/49 324/223/50
f 321/220/47 324/223/50 322/221/48
f 323/222/49 325/224/51 326/225/52
f 323/222/49 326/225/52 324/223/50
f 325/224/51 299/201/28 302/203/30
f 325/224/51 302/203/30 326/225/52
f 327/226/53 328/227/54 329/217/55
f 327/226/53 329/217/55 330/216/56
f 328/227/54 331/228/57 332/220/58
f 328/227/54 332/220/58 329/217/55
f 331/228/57 333/229/59 334/222/60
f 331/228/57 334/222/60 332/220/58
f 333/229/59 335/230/61 336/224/62
f 333/229/59 336/224/62 334/222/60
f 335/230/61 295/199/25 298/201/27
f 335/230/61 298/201/27 336/224/62
f 337/209/63 338/208/64 339/227/65
f 337/209/63 339/227/65 340/226/63
f 338/208/64 341/211/67 342/228/68
f 338/208/64 342/228/68 339/227/65
f 341/211/67 343/213/69 344/229/70
f 341/211/67 344/229/70 342/228/68
f 343/213/69 345/215/71 346/230/72
f 343/213/69 346/230/72 344/229/70
f 345/215/71 291/196/22 294/199/24
f 345/215/71 294/199/24 346/230/72
f 347/231/22 348/232/23 349/233/23
f 347/231/22 349/233/23 350/234/24
f 351/234/25 352/233/26 353/235/26
f 351/234/25 353/235/26 354/236/27
f 355/236/28 356/235/29 357/237/29
f 355/236/28 357/237/29 358/238/30
f 359/239/31 360/240/32 361/232/32
f 359/239/31 361/232/32 362/231/33
f 363/241/34 364/242/35 365/243/36
f 363/241/34 365/243/36 366/244/34
f 364/242/35 367/245/37 368/246/38
f 364/242/35 368/246/38 365/243/36
f 367/245/37 369/247/39 370/248/40
f 367/245/37 370/248/40 368/246/38
f 369/247/39 371/249/41 372/250/42
f 369/247/39 372/250/42 370/248/40
f 371/249/41 359/239/31 362/231/33
f 371/249/41 362/231/33 372/250/42
f 373/251/43 374/252/44 375/253/45
f 373/251/43 375/253/45 376/254/43
f 374/252/44 377/255/47 378/256/48
f 374/252/44 378/256/48 375/253/45
f 377/255/47 379/257/49 380/258/50
f 377/255/47 380/258/50 378/256/48
f 379/257/49 381/259/51 382/260/52
f 379/257/49 382/260/52 380/258/50
f 381/259/51 355/236/28 358/238/30
f 381/259/51 358/238/30 382/260/52
f 383/261/53 384/262/54 385/252/55
f 383/261/53 385/252/55 386/251/56
f 384/262/54 387/263/57 388/255/58
f 384/262/54 388/255/58 385/252/55
f 387/263/57 389/264/59 390/257/60
f 387/263/57 390/257/60 388/255/58
f 389/264/59 391/265/61 392/259/62
f 389/264/59 392/259/62 390/257/60
f 391/265/61 351/234/25 354/236/27
f 391/265/61 354/236/27 392/259/62
f 393/244/63 394/243/64 395/262/65
f 393/244/63 395/262/65 396/261/63
f 394/243/64 397/246/67 398/263/68
f 394/243/64 398/263/68 395/262/65
f 397/246/67 399/248/69 400/264/70
f 397/246/67 400/264/70 398/263/68
f 399/248/69 401/250/71 402/265/72
f 399/248/69 402/265/72 400/264/70
f 401/250/71 347/231/22 350/234/24
f 401/250/71 350/234/24 402/265/72
f 403/266/22 404/267/23 405/268/23
f 403/266/22 405/268/23 406/269/24
f 407/269/25 408/268/26 409/270/26
f 407/269/25 409/270/26 410/271/27
f 411/271/28 412/270/29 413/272/29
f 411/271/28 413/272/29 414/273/30
f 415/274/31 416/275/32 417/267/32
f 415/274/31 417/267/32 418/266/33
f 419/276/34 420/277/35 421/278/36
f 419/276/34 421/278/36 422/279/34
f 420/277/35 423/280/37 424/281/38
f 420/277/35 424/281/38 421/278/36
f 423/280/37 425/282/39 426/283/40
f 423/280/37 426/283/40 424/281/38
f 425/282/39 427/284/41 428/285/42
f 425/282/39 428/285/42 426/283/40
f 427/284/41 415/274/31 418/266/33
f 427/284/41 418/266/33 428/285/42
f 429/286/43 430/287/44 431/288/45
f 429/286/43 431/288/45 432/289/46
f 430/287/44 433/290/47 434/291/48
f 430/287/44 434/291/48 431/288/45
f 433/290/47 435/292/49 436/293/50
f 433/290/47 436/293/50 434/291/48
f 435/292/49 437/294/51 438/295/52
f 435/292/49 438/295/52 436/293/50
f 437/294/51 411/271/28 414/273/30
f 437/294/51 414/273/30 438/295/52
f 439/296/53 440/297/54 441/287/55
f 439/296/53 441/287/55 442/286/56
f 440/297/54 443/298/57 444/290/58
f 440/297/54 444/290/58 441/287/55
f 443/298/57 445/299/59 446/292/60
f 443/298/57 446/292/60 444/290/58
f 445/299/59 447/300/61 448/294/62
f 445/299/59 448/294/62 446/292/60
f 447/300/61 407/269/25 410/271/27
f 447/300/61 410/271/27 448/294/62
f 449/279/63 450/278/64 451/297/65
f 449/279/63 451/297/65 452/296/63
f 450/278/64 453/281/67 454/298/68
f 450/278/64 454/298/68 451/297/65
f 453/281/67 455/283/69 456/299/70
f 453/281/67 456/299/70 454/298/68
f 455/283/69 457/285/71 458/300/72
f 455/283/69 458/300/72 456/299/70
f 457/285/71 403/266/22 406/269/24
f 457/285/71 406/269/24 458/300/72
f 459/301/22 460/302/23 461/303/23
f 459/301/22 461/303/23 462/304/24
f 463/304/25 464/303/26 465/305/26
f 463/304/25 465/305/26 466/306/27
f 467/306/28 468/305/29 469/307/29
f 467/306/28 469/307/29 470/308/30
f 471/309/31 472/310/32 473/302/32
f 471/309/31 473/302/32 474/301/33
f 475/311/34 476/312/35 477/313/36
f 475/311/34 477/313/36 478/314/34
f 476/312/35 479/315/37 480/316/38
f 476/312/35 480/316/38 477/313/36
f 479/315/37 481/317/39 482/318/40
f 479/315/37 482/318/40 480/316/38
f 481/317/39 483/319/41 484/320/42
f 481/317/39 484/320/42 482/318/40
f 483/319/41 471/309/31 474/301/33
f 483/319/41 474/301/33 484/320/42
f 485/321/43 486/322/44 487/323/45
f 485/321/43 487/323/45 488/324/46
f 486/322/44 489/325/47 490/326/48
f 486/322/44 490/326/48 487/323/45
f 489/325/47 491/327/49 492/328/50
f 489/325/47 492/328/50 490/326/48
f 491/327/49 493/329/51 494/330/52
f 491/327/49 494/330/52 492/328/50
f 493/329/51 467/306/28 470/308/30
f 493/329/51 470/308/30 494/330/52
f 495/331/53 496/332/54 497/322/55
f 495/331/53 497/322/55 498/321/56
f 496/332/54 499/333/57 500/325/58
f 496/332/54 500/325/58 497/322/55
f 499/333/57 501/334/59 502/327/60
f 499/333/57 502/327/60 500/325/58
f 501/334/59 503/335/61 504/329/62
f 501/334/59 504/329/62 502/327/60
f 503/335/61 463/304/25 466/306/27
f 503/335/61 466/306/27 504/329/62
f 505/314/63 506/313/64 507/332/65
f 505/314/63 507/332/65 508/331/63
f 506/313/64 509/316/67 510/333/68
f 506/313/64 510/333/68 507/332/65
f 509/316/67 511/318/69 512/334/70
f 509/316/67 512/334/70 510/333/68
f 511/318/69 513/320/71 514/335/72
f 511/318/69 514/335/72 512/334/70
f 513/320/71 459/301/22 462/304/24
f 513/320/71 462/304/24 514/335/72
f 515/336/22 516/337/23 517/338/23
f 515/336/22 517/338/23 518/339/24
f 519/339/25 520/338/26 521/340/26
f 519/339/25 521/340/26 522/341/27
f 523/341/28 524/340/29 525/342/29
f 523/341/28 525/342/29 526/343/30
f 527/344/31 528/345/32 529/337/32
f 527/344/31 529/337/32 530/336/33
f 531/346/34 532/347/35 533/348/36
f 531/346/34 533/348/36 534/349/34
f 532/347/35 535/350/37 536/351/38
f 532/347/35 536/351/38 533/348/36
f 535/350/37 537/352/39 538/353/40
f 535/350/37 538/353/40 536/351/38
f 537/352/39 539/354/41 540/355/42
f 537/352/39 540/355/42 538/353/40
f 539/354/41 527/344/31 530/336/33
f 539/354/41 530/336/33 540/355/42
f 541/356/43 542/357/44 543/358/45
f 541/356/43 543/358/45 544/359/43
f 542/357/44 545/360/47 546/361/48
f 542/357/44 546/361/48 543/358/45
f 545/360/47 547/362/49 548/363/50
f 545/360/47 548/363/50 546/361/48
f 547/362/49 549/364/51 550/365/52
f 547/362/49 550/365/52 548/363/50
f 549/364/51 523/341/28 526/343/30
f 549/364/51 526/343/30 550/365/52
f 551/366/53 552/367/54 553/357/55
f 551/366/53 553/357/55 554/356/56
f 552/367/54 555/368/57 556/360/58
f 552/367/54 556/360/58 553/357/55
f 555/368/57 557/369/59 558/362/60
f 555/368/57 558/362/60 556/360/58
f 557/369/59 559/370/61 560/364/62
f 557/369/59 560/364/62 558/362/60
f 559/370/61 519/339/25 522/341/27
f 559/370/61 522/341/27 560/364/62
f 561/349/63 562/348/64 563/367/65
f 561/349/63 563/367/65 564/366/63
f 562/348/64 565/351/67 566/368/68
f 562/348/64 566/368/68 563/367/65
f 565/351/67 567/353/69 568/369/70
f 565/351/67 568/369/70 566/368/68
f 567/353/69 569/355/71 570/370/72
f 567/353/69 570/370/72 568/369/70
f 569/355/71 515/336/22 518/339/24
f 569/355/71 518/339/24 570/370/72
f 571/371/22 572/372/23 573/373/23
f 571/371/22 573/373/23 574/374/24
f 575/374/25 576/373/26 577/375/26
f 575/374/25 577/375/26 578/376/27
f 579/376/28 580/375/29 581/377/29
f 579/376/28 581/377/29 582/378/30
f 583/379/31 584/380/32 585/372/32
f 583/379/31 585/372/32 586/371/33
f 587/381/34 588/382/35 589/383/36
f 587/381/34 589/383/36 590/384/34
f 588/382/35 591/385/37 592/386/38
f 588/382/35 592/386/38 589/383/36
f 591/385/37 593/387/39 594/388/40
f 591/385/37 594/388/40 592/386/38
f 593/387/39 595/389/41 596/390/42
f 593/387/39 596/390/42 594/388/40
f 595/389/41 583/379/31 586/371/33
f 595/389/41 586/371/33 596/390/42
f 597/391/43 598/392/44 599/393/45
f 597/391/43 599/393/45 600/394/46
f 598/392/44 601/395/47 602/396/48
f 598/392/44 602/396/48 599/393/45
f 601/395/47 603/397/49 604/398/50
f 601/395/47 604/398/50 602/396/48
f 603/397/49 605/399/51 606/400/52
f 603/397/49 606/400/52 604/398/50
f 605/399/51 579/376/28 582/378/30
f 605/399/51 582/378/30 606/400/52
f 607/401/53 608/402/54 609/392/55
f 607/401/53 609/392/55 610/391/56
f 608/402/54 611/403/57 612/395/58
f 608/402/54 612/395/58 609/392/55
f 611/403/57 613/404/59 614/397/60
f 611/403/57 614/397/60 612/395/58
f 613/404/59 615/405/61 616/399/62
f 613/404/59 616/399/62 614/397/60
f 615/405/61 575/374/25 578/376/27
f 615/405/61 578/376/27 616/399/62
f 617/384/63 618/383/64 619/402/65
f 617/384/63 619/402/65 620/401/63
f 618/383/64 621/386/67 622/403/68
f 618/383/64 622/403/68 619/402/65
f 621/386/67 623/388/69 624/404/70
f 621/386/67 624/404/70 622/403/68
f 623/388/69 625/390/71 626/405/72
f 623/388/69 626/405/72 624/404/70
f 625/390/71 571/371/22 574/374/24
f 625/390/71 574/374/24 626/405/72
f 627/406/22 628/407/23 629/408/23
f 627/406/22 629/408/23 630/409/24
f 631/409/25 632/408/26 633/410/26
f 631/409/25 633/410/26 634/411/27
f 635/411/28 636/410/29 637/412/29
f 635/411/28 637/412/29 638/413/30
f 639/414/31 640/415/32 641/407/32
f 639/414/31 641/407/32 642/406/33
f 643/416/34 644/417/35 645/418/36
f 643/416/34 645/418/36 646/419/34
f 644/417/35 647/420/37 648/421/38
f 644/417/35 648/421/38 645/418/36
f 647/420/37 649/422/39 650/423/40
f 647/420/37 650/423/40 648/421/38
f 649/422/39 651/424/41 652/425/42
f 649/422/39 652/425/42 650/423/40
f 651/424/41 639/414/31 642/406/33
f 651/424/41 642/406/33 652/425/42
f 653/426/43 654/427/44 655/428/45
f 653/426/43 655/428/45 656/429/46
f 654/427/44 657/430/47 658/431/48
f 654/427/44 658/431/48 655/428/45
f 657/430/47 659/432/49 660/433/50
f 657/430/47 660/433/50 658/431/48
f 659/432/49 661/434/51 662/435/52
f 659/432/49 662/435/52 660/433/50
f 661/434/51 635/411/28 638/413/30
f 661/434/51 638/413/30 662/435/52
f 663/436/53 664/437/54 665/427/55
f 663/436/53 665/427/55 666/426/56
f 664/437/54 667/438/57 668/430/58
f 664/437/54 668/430/58 665/427/55
f 667/438/57 669/439/59 670/432/60
f 667/438/57 670/432/60 668/430/58
f 669/439/59 671/440/61 672/434/62
f 669/439/59 672/434/62 670/432/60
f 671/440/61 631/409/25 634/411/27
f 671/440/61 634/411/27 672/434/62
f 673/419/63 674/418/64 675/437/65
f 673/419/63 675/437/65 676/436/63
f 674/418/64 677/421/67 678/438/68
f 674/418/64 678/438/68 675/437/65
f 677/421/67 679/423/69 680/439/70
f 677/421/67 680/439/70 678/438/68
f 679/423/69 681/425/71 682/440/72
f 679/423/69 682/440/72 680/439/70
f 681/425/71 627/406/22 630/409/24
f 681/425/71 630/409/24 682/440/72
s 0
f 690/441/1 688/442/1 689/443/1
f 688/442/1 690/441/1 687/444/1
f 687/444/1 690/441/1 691/445/1
f 687/444/1 691/445/1 686/446/1
s 1
f 686/446/1 691/445/1 683/447/73
f 686/446/1 683/447/73 685/448/1
f 685/448/1 683/447/73 684/449/74
s 0
f 699/450/3 697/451/3 698/452/3
f 697/451/3 699/450/3 696/453/3
f 696/453/3 699/450/3 700/454/3
f 696/453/3 700/454/3 695/455/3
f 695/455/3 700/454/3 692/456/3
f 695/455/3 692/456/3 694/457/3
f 694/457/3 692/456/3 693/458/3
s 1
f 704/459/75 684/449/74 683/447/73
f 684/449/74 704/459/75 703/460/76
f 703/460/76 704/459/75 702/461/77
f 702/461/77 704/459/75 701/462/77
s 0
f 705/463/3 709/464/3 710/465/3
f 709/464/3 705/463/3 708/466/3
f 708/466/3 705/463/3 707/467/3
f 707/467/3 705/463/3 706/468/3
f 713/469/3 711/470/3 712/471/3
f 711/470/3 713/469/3 719/472/3
f 719/472/3 713/469/3 714/473/3
f 719/472/3 714/473/3 715/474/3
f 719/472/3 715/474/3 718/475/3
f 718/475/3 715/474/3 716/476/3
f 718/475/3 716/476/3 717/477/3
f 708/466/3 694/457/3 693/458/3
f 694/457/3 708/466/3 711/470/3
f 711/470/3 708/466/3 707/467/3
f 711/470/3 707/467/3 712/471/3
s 1
f 721/478/1 701/462/77 704/459/75
f 701/462/77 721/478/1 720/479/78
f 720/479/78 721/478/1 726/480/1
s 0
f 726/480/1 721/478/1 722/481/1
f 726/480/1 722/481/1 725/482/1
f 725/482/1 722/481/1 723/483/1
f 725/482/1 723/483/1 724/484/1
s 1
f 729/485/74 727/486/1 728/487/1
f 727/486/1 729/485/74 732/488/1
f 732/488/1 729/485/74 730/489/77
f 732/488/1 730/489/77 731/490/78
s 0
f 706/468/3 712/471/3 707/467/3
f 712/471/3 706/468/3 733/491/3
f 712/471/3 733/491/3 713/469/3
f 734/492/3 693/458/3 692/456/3
f 693/458/3 734/492/3 709/464/3
f 693/458/3 709/464/3 708/466/3
s 1
f 684/449/74 736/493/1 685/448/1
f 736/493/1 684/449/74 735/490/1
f 735/490/1 684/449/74 703/460/76
f 701/462/77 738/487/78 702/461/77
f 738/487/78 701/462/77 737/494/79
f 737/494/79 701/462/77 720/479/78
s 0
f 749/495/3 747/496/3 748/497/3
f 747/496/3 749/495/3 746/498/3
f 746/498/3 749/495/3 750/499/3
f 746/498/3 750/499/3 745/500/3
f 745/500/3 750/499/3 739/501/3
f 745/500/3 739/501/3 744/502/3
f 744/502/3 739/501/3 740/503/3
f 744/502/3 740/503/3 743/504/3
f 743/504/3 740/503/3 741/505/3
f 743/504/3 741/505/3 742/506/3
f 755/507/1 753/508/1 754/509/1
f 753/508/1 755/507/1 752/510/1
f 752/510/1 755/507/1 756/511/1
f 752/510/1 756/511/1 751/512/1
f 751/512/1 756/511/1 757/513/1
f 751/512/1 757/513/1 762/514/1
f 762/514/1 757/513/1 758/515/1
f 762/514/1 758/515/1 761/516/1
f 761/516/1 758/515/1 759/517/1
f 761/516/1 759/517/1 760/518/1
